<svg t="1620639260584" class="icon" viewBox="0 0 1024 1024" version="1.1" xmlns="http://www.w3.org/2000/svg" p-id="1406" width="64" height="64"><path d="M499.712 429.056s1.024 125.44-133.632 233.472c-28.672 23.04-71.68 13.824-88.064-19.456-13.312-26.624-4.096-58.88 20.992-74.24 51.2-32.256 131.584-91.648 163.328-164.352l37.376 24.576z" fill="#FFFFFF" p-id="1407"></path><path d="M329.728 680.96c-4.608 0-9.216-0.512-13.824-1.536-18.944-4.096-34.304-16.384-43.008-33.28-14.336-29.184-4.608-64 23.04-80.896 46.592-29.184 129.536-89.088 161.792-162.304l2.56-5.632 45.056 29.696v2.56c0 1.024-0.512 129.024-135.68 237.568-11.776 8.704-25.6 13.824-39.936 13.824z m134.656-268.8c-34.816 73.216-116.736 132.096-162.816 161.28-23.04 14.336-31.232 43.52-18.944 68.096 7.168 14.336 19.968 24.576 35.84 28.16 15.872 3.584 31.744-0.512 44.544-10.24 119.808-97.28 130.56-208.896 131.584-227.84l-30.208-19.456z" fill="#2E66FF" p-id="1408"></path><path d="M697.856 717.312c-2.048 45.568-128.512 200.192-174.592 198.144-45.568-2.048-34.816-91.648-32.768-137.216 2.048-45.568 40.448-80.896 86.016-78.848 45.568 2.048 123.392-27.648 121.344 17.92z" fill="#FFFFFF" p-id="1409"></path><path d="M524.288 921.088h-1.024c-9.216-0.512-17.408-4.096-23.552-10.752-20.48-22.528-17.408-76.288-15.36-115.712 0.512-5.632 0.512-11.264 1.024-15.872 1.024-23.552 11.264-45.056 28.16-60.928 17.408-15.872 39.424-24.064 62.976-23.04 12.8 0.512 29.184-1.536 45.056-3.584 30.208-4.096 58.88-7.68 73.216 5.12 5.632 5.12 8.192 12.8 8.192 22.016-1.024 26.112-36.864 78.848-72.192 120.32-16.384 18.944-73.216 82.432-106.496 82.432z m48.64-216.576c-19.456 0-37.888 7.168-52.224 20.48-15.36 13.824-24.064 33.28-25.088 53.76 0 5.12-0.512 10.24-1.024 16.384-2.048 35.328-5.12 88.576 12.8 108.544 4.096 4.608 9.728 7.168 16.384 7.68 17.92 1.024 58.368-31.232 99.328-79.36 39.424-46.08 68.608-94.208 69.632-113.664 0.512-6.656-1.024-11.264-4.608-14.336-10.24-9.728-37.888-6.144-64.512-2.56-16.384 2.048-32.768 4.608-47.104 3.584-1.024-0.512-2.56-0.512-3.584-0.512z" fill="#2E66FF" p-id="1410"></path><path d="M541.696 718.336s-87.04 122.368-293.888 133.632c-44.032 2.56-79.36-36.864-72.192-80.384 5.632-34.816 37.376-59.904 72.704-57.856 72.192 4.608 192 3.072 274.432-45.568l18.944 50.176z" fill="#FFFFFF" p-id="1411"></path><path d="M243.712 857.088c-20.992 0-41.472-8.704-55.296-25.088-15.36-16.896-21.504-39.424-17.92-61.952 6.144-37.888 39.936-64.512 77.824-61.952 66.048 4.096 188.928 4.096 271.36-44.544l5.12-3.072 22.528 58.368-1.536 2.048c-1.024 1.024-90.624 124.928-297.984 135.68-1.536 0.512-2.56 0.512-4.096 0.512z m-0.512-138.752c-31.232 0-57.856 22.528-62.976 53.76-3.072 19.456 2.56 38.912 15.36 53.248 13.312 14.848 31.744 22.528 51.2 21.504 187.392-9.728 275.456-113.152 288.256-129.024l-15.872-41.984c-84.992 47.104-206.336 47.616-271.872 43.008-1.024-0.512-2.56-0.512-4.096-0.512z" fill="#2E66FF" p-id="1412"></path><path d="M549.888 785.408c-91.136-4.096-162.816-81.92-159.232-173.056l2.56-64.512c4.096-91.136 81.92-162.816 173.056-159.232 91.136 4.096 162.816 81.92 159.232 173.056l-2.56 64.512c-4.096 91.648-81.92 163.328-173.056 159.232z" fill="#FFFFFF" p-id="1413"></path><path d="M557.056 791.04h-7.168c-94.208-4.096-167.936-83.968-163.84-178.688l2.56-64.512c2.048-45.568 21.504-87.552 55.296-118.784 33.792-31.232 77.312-47.104 122.88-45.056 45.568 2.048 87.552 21.504 118.784 55.296s47.104 77.312 45.056 122.88l-2.56 64.512c-2.048 45.568-21.504 87.552-55.296 118.784-32.256 29.696-73.216 45.568-115.712 45.568z m2.56-396.8c-40.448 0-78.848 14.848-108.544 42.496-31.744 29.184-50.176 68.608-52.224 111.616l-2.56 64.512c-3.584 88.576 65.536 163.84 154.112 167.936 43.008 2.048 83.968-13.312 115.712-42.496 31.744-29.184 50.176-68.608 52.224-111.616l2.56-64.512c2.048-43.008-13.312-83.968-42.496-115.712-29.696-31.744-69.12-50.176-112.128-52.224h-6.656z" fill="#2E66FF" p-id="1414"></path><path d="M424.96 643.072a125.44 93.696 90 1 0 187.392 0 125.44 93.696 90 1 0-187.392 0Z" fill="#C9E6FF" p-id="1415"></path><path d="M677.376 432.128s93.696 83.456 83.456 256c-2.048 36.864-37.888 62.464-73.728 52.224-28.672-8.192-46.592-36.352-40.96-65.536 10.752-59.392 20.48-158.72-12.288-231.424l43.52-11.264z" fill="#FFFFFF" p-id="1416"></path><path d="M703.488 748.032c-5.632 0-11.776-1.024-17.408-2.56-31.232-8.704-50.688-39.424-44.544-71.168 9.728-54.272 20.992-155.648-11.776-228.864l-2.56-5.632 52.224-13.312 2.048 2.048c1.024 1.024 95.232 87.04 84.992 260.096-1.024 18.944-10.752 36.352-26.624 47.616-11.264 7.68-23.552 11.776-36.352 11.776z m-62.464-301.056c30.72 74.752 19.968 175.104 10.24 228.864-4.608 26.624 11.264 52.224 37.376 59.904 15.36 4.608 31.744 1.536 45.056-7.68 13.312-9.216 20.992-24.064 22.016-39.936 9.216-154.624-66.56-237.056-79.872-249.856l-34.816 8.704z" fill="#2E66FF" p-id="1417"></path><path d="M802.304 176.64c2.048-49.152-35.84-90.624-85.504-92.672-35.84-1.536-67.072 17.92-82.432 47.616-20.48-6.656-41.984-10.24-65.024-11.264-29.696-1.024-58.368 2.56-84.48 10.752-10.752-23.552-33.792-40.448-61.44-41.472-39.424-1.536-72.192 28.672-74.24 68.096-1.024 22.528 8.704 43.008 24.064 56.32-13.824 22.528-22.016 47.616-23.552 74.752-4.096 98.304 87.04 181.76 203.776 186.88 116.736 5.12 215.04-70.656 219.136-168.448 1.024-20.992-2.56-41.472-9.728-60.416 23.04-15.872 38.4-40.96 39.424-70.144z" fill="#FFFFFF" p-id="1418"></path><path d="M565.248 480.768h-11.264c-57.344-2.56-111.104-24.064-150.016-59.904-39.424-36.352-60.416-83.456-58.368-132.096 1.024-26.112 8.704-50.688 22.016-73.728-15.36-15.36-23.552-35.84-23.04-57.856 1.536-41.984 37.376-74.752 79.36-72.704 27.136 1.024 51.2 16.384 64 40.448 26.112-7.68 53.76-11.264 81.92-9.728 20.992 1.024 41.984 4.608 61.952 10.24 17.408-29.696 50.688-48.128 85.504-46.592 25.088 1.024 48.64 11.776 65.536 30.208s25.6 42.496 24.576 67.584c-1.024 28.672-14.848 54.272-37.888 71.168 6.656 18.944 9.728 38.912 8.704 58.88-2.048 49.152-26.624 94.208-69.12 126.976-39.424 30.72-90.112 47.104-143.872 47.104zM420.864 94.72c-34.816 0-64.512 27.648-66.048 62.976-1.024 19.968 7.168 38.912 22.528 52.224l3.072 3.072-2.048 3.584c-13.824 22.528-21.504 46.592-22.528 72.192-2.048 46.08 17.408 90.112 54.784 124.416 37.376 34.304 88.576 54.784 143.872 56.832 55.296 2.56 108.032-13.312 148.48-44.544 39.936-30.72 63.488-73.216 65.536-119.296 1.024-19.968-2.56-39.424-9.216-58.368l-1.536-3.584 3.072-2.048c22.016-15.36 35.328-38.912 36.352-65.536 1.024-22.528-6.656-44.032-22.016-60.416s-35.84-26.112-58.368-27.136c-32.256-1.536-62.976 16.384-77.824 45.056l-2.048 3.584-4.096-1.536c-20.48-6.656-41.984-10.24-63.488-11.264-28.672-1.024-56.32 2.56-82.432 10.752l-4.096 1.536-2.048-4.096c-10.24-22.528-32.256-37.376-57.344-38.4h-2.56z" fill="#2E66FF" p-id="1419"></path><path d="M510.976 834.048m-82.432 0a82.432 82.432 0 1 0 164.864 0 82.432 82.432 0 1 0-164.864 0Z" fill="#FFFFFF" p-id="1420"></path><path d="M510.976 922.112h-3.584c-48.128-2.048-86.016-43.008-83.968-91.648 2.048-48.128 43.008-86.016 91.648-83.968 23.552 1.024 45.056 11.264 60.928 28.16 15.872 17.408 24.064 39.424 23.04 62.976-1.024 23.552-11.264 45.056-28.16 60.928-16.896 15.36-37.888 23.552-59.904 23.552z m0-165.376c-41.472 0-75.776 32.768-77.312 74.24-2.048 42.496 31.232 78.848 74.24 80.896 20.48 1.024 40.448-6.144 55.808-20.48 15.36-13.824 24.064-33.28 25.088-53.76 1.024-20.48-6.144-40.448-20.48-55.808-13.824-15.36-33.28-24.064-53.76-25.088h-3.584z" fill="#2E66FF" p-id="1421"></path><path d="M510.976 834.048m-54.272 0a54.272 54.272 0 1 0 108.544 0 54.272 54.272 0 1 0-108.544 0Z" fill="#FFB5EC" p-id="1422"></path><path d="M248.832 788.992c1.024-27.136-18.432-50.688-45.056-54.272-9.216 8.192-18.944 21.504-20.992 35.328-4.608 27.136 5.12 53.76 31.232 66.56 19.456-7.168 33.792-25.6 34.816-47.616zM674.816 152.064c5.12-18.944 22.528-32.768 43.52-32.768 25.088 0 45.056 19.968 45.056 45.056 0 19.968-13.312 36.864-31.232 43.008l-57.344-55.296zM409.6 183.808c-13.824-4.096-24.064-16.896-24.064-31.744 0-18.432 14.848-32.768 32.768-32.768 18.432 0 32.768 14.848 32.768 32.768L409.6 183.808z" fill="#FFB5EC" p-id="1423"></path><path d="M560.335792 333.601305a19.455611 29.183416 1.355 1 0 1.380201-58.350512 19.455611 29.183416 1.355 1 0-1.380201 58.350512Z" fill="#2E66FF" p-id="1424"></path><path d="M474.112 349.184a29.184 19.456 0 1 0 58.368 0 29.184 19.456 0 1 0-58.368 0Z" fill="#2E66FF" p-id="1425"></path><path d="M551.28868 304.507489a6.655867 10.239795 1.355 1 0 0.484281-20.473864 6.655867 10.239795 1.355 1 0-0.484281 20.473864Z" fill="#C9E6FF" p-id="1426"></path><path d="M459.558953 329.500254a19.455611 29.183416 1.355 1 0 1.380201-58.350511 19.455611 29.183416 1.355 1 0-1.380201 58.350511Z" fill="#2E66FF" p-id="1427"></path><path d="M451.421432 300.074252a6.655867 10.239795 1.355 1 0 0.484281-20.473864 6.655867 10.239795 1.355 1 0-0.484281 20.473864Z" fill="#C9E6FF" p-id="1428"></path><path d="M592.384 364.032m-34.304 0a34.304 34.304 0 1 0 68.608 0 34.304 34.304 0 1 0-68.608 0Z" fill="#FFF152" p-id="1429"></path><path d="M423.936 354.304m-27.648 0a27.648 27.648 0 1 0 55.296 0 27.648 27.648 0 1 0-55.296 0Z" fill="#FFF152" p-id="1430"></path><path d="M496.64 364.032h5.12v24.064h-5.12z" fill="#2E66FF" p-id="1431"></path><path d="M504.832 390.656c-11.264 0-22.528-3.584-32.256-10.24-1.024-1.024-1.536-2.56-0.512-3.584 1.024-1.024 2.56-1.536 3.584-0.512 14.336 10.24 33.28 12.288 49.664 5.12l5.632-2.56c1.536-0.512 2.56 0 3.584 1.536 0.512 1.536 0 2.56-1.536 3.584l-5.632 2.56c-7.168 2.56-14.848 4.096-22.528 4.096z" fill="#2E66FF" p-id="1432"></path><path d="M506.88 421.376c-29.696 0-53.76-22.528-53.76-50.176s24.064-50.176 53.76-50.176 53.76 22.528 53.76 50.176-24.064 50.176-53.76 50.176z m0-94.72c-27.136 0-48.64 19.968-48.64 45.056s22.016 45.056 48.64 45.056c27.136 0 48.64-19.968 48.64-45.056s-22.016-45.056-48.64-45.056z" fill="#2E66FF" p-id="1433"></path><path d="M523.776 469.504l22.016-7.168c8.704-2.56 17.408 3.584 17.408 12.288v29.696c0 10.24-11.264 16.384-19.968 11.264l-22.016-13.824c-3.584-2.56-6.144-6.656-6.144-11.264v-8.704c0-5.12 3.584-10.24 8.704-12.288z" fill="#FFF152" p-id="1434"></path><path d="M549.888 520.192c-3.072 0-5.632-1.024-8.192-2.56l-22.016-13.824c-4.608-3.072-7.168-7.68-7.168-13.312v-8.704c0-6.656 4.608-12.8 10.752-14.848l22.016-7.168c4.608-1.536 9.728-0.512 14.336 2.048 4.096 3.072 6.656 7.68 6.656 12.8v29.696c0 5.632-3.072 10.752-8.192 13.824-3.072 1.536-5.632 2.048-8.192 2.048z m-25.088-48.128c-4.608 1.536-7.168 5.632-7.168 10.24v8.704c0 3.584 2.048 7.168 5.12 9.216l22.016 13.824c3.072 2.048 7.168 2.048 10.752 0.512 3.584-2.048 5.632-5.12 5.632-9.216v-29.696c0-3.584-1.536-6.656-4.608-8.704-2.56-2.048-6.144-2.56-9.728-1.536l-22.016 6.656z" fill="#2E66FF" p-id="1435"></path><path d="M505.344 502.784l-22.016 7.168c-8.704 2.56-17.408-3.584-17.408-12.288v-29.696c0-10.24 11.264-16.384 19.968-11.264l22.016 13.824c3.584 2.56 6.144 6.656 6.144 11.264v8.704c0.512 5.632-3.072 10.752-8.704 12.288z" fill="#FFF152" p-id="1436"></path><path d="M479.232 513.536c-3.072 0-6.656-1.024-9.216-3.072-4.096-3.072-6.656-7.68-6.656-12.8v-29.696c0-5.632 3.072-10.752 8.192-13.824 5.12-2.56 11.264-2.56 15.872 0.512l22.016 13.824c4.608 3.072 7.168 7.68 7.168 13.312v8.704c0 6.656-4.608 12.8-10.752 14.848l-22.016 7.168c-1.024 0.512-3.072 1.024-4.608 1.024z m0-55.808c-1.536 0-3.584 0.512-5.12 1.536-3.584 2.048-5.632 5.12-5.632 9.216v29.696c0 3.584 1.536 6.656 4.608 8.704 2.56 2.048 6.144 2.56 9.728 1.536l22.016-7.168c4.608-1.536 7.168-5.632 7.168-10.24v-8.704c0-3.584-2.048-7.168-5.12-9.216l-22.016-13.824c-1.536-1.024-3.584-1.536-5.632-1.536z" fill="#2E66FF" p-id="1437"></path><path d="M515.072 484.864m-12.288 0a12.288 12.288 0 1 0 24.576 0 12.288 12.288 0 1 0-24.576 0Z" fill="#FFF152" p-id="1438"></path><path d="M515.072 499.2c-8.192 0-14.848-6.656-14.848-14.848 0-8.192 6.656-14.848 14.848-14.848s14.848 6.656 14.848 14.848c-0.512 8.192-7.168 14.848-14.848 14.848z m0-24.064c-5.12 0-9.728 4.096-9.728 9.728s4.096 9.728 9.728 9.728 9.728-4.096 9.728-9.728-4.608-9.728-9.728-9.728z" fill="#2E66FF" p-id="1439"></path></svg>